<svg width="97" height="23" viewBox="0 0 97 23" fill="none" xmlns="http://www.w3.org/2000/svg">
<g clip-path="url(#clip0_19_266)">
<path d="M36.0999 13.2932H36.0705L34.2174 5.80096H31.9853L30.1027 13.2025H30.0722L28.357 5.80096H25.9733L28.8424 16.6735H31.2567L33.0668 9.27315H33.0974L34.9313 16.6735H37.3003L40.2146 5.80096H37.8773L36.0999 13.2932ZM47.4869 9.47847C47.2585 9.18727 46.9577 8.96152 46.6146 8.82396C46.1614 8.65236 45.6789 8.57218 45.1948 8.58802C44.7617 8.59546 44.336 8.70217 43.9503 8.89996C43.5107 9.12166 43.1466 9.46903 42.9038 9.89817H42.8574V5.80096H40.7011V16.6735H42.8563V12.5468C42.8563 11.7445 42.9879 11.1682 43.2511 10.8181C43.5144 10.468 43.9398 10.2929 44.5273 10.2929C45.0432 10.2929 45.4022 10.4532 45.6043 10.7739C45.8068 11.0926 45.9087 11.5781 45.9087 12.227V16.6735H48.065V11.8311C48.0683 11.3835 48.025 10.9368 47.936 10.4982C47.8634 10.1292 47.71 9.78086 47.4869 9.47847ZM56.3702 14.9233V10.8283C56.3702 10.3496 56.2638 9.96737 56.0511 9.67811C55.838 9.38723 55.5567 9.15348 55.232 8.99751C54.8818 8.82978 54.5072 8.71912 54.1222 8.66969C53.7248 8.61441 53.3242 8.58637 52.923 8.58575C52.4872 8.58584 52.0526 8.62916 51.6253 8.71506C51.2164 8.79322 50.8236 8.9401 50.4634 9.14951C50.1223 9.34951 49.8316 9.62546 49.6138 9.95602C49.3758 10.3384 49.2452 10.7781 49.2359 11.2287H51.3855C51.4262 10.8011 51.5688 10.4971 51.812 10.3145C52.0552 10.1318 52.3878 10.0411 52.8144 10.0411C52.9945 10.0403 53.1745 10.0528 53.3529 10.0785C53.508 10.1003 53.6574 10.1519 53.793 10.2305C53.9222 10.3067 54.0286 10.4164 54.1007 10.5481C54.1841 10.7211 54.2229 10.9121 54.2138 11.104C54.2247 11.1985 54.2124 11.2943 54.1782 11.383C54.1439 11.4717 54.0885 11.5508 54.017 11.6133C53.8469 11.7441 53.6497 11.8352 53.44 11.8798C53.1653 11.9473 52.8858 11.9932 52.6039 12.0171C52.2906 12.0477 51.9715 12.0897 51.648 12.1396C51.3232 12.1905 51.0014 12.259 50.684 12.3449C50.3804 12.4245 50.0927 12.5558 49.8333 12.7329C49.5791 12.9131 49.371 13.151 49.2257 13.4271C49.0567 13.7695 48.9758 14.149 48.9904 14.5308C48.9818 14.8917 49.0517 15.2501 49.1952 15.5812C49.3236 15.866 49.5175 16.1163 49.7609 16.3117C50.013 16.5093 50.3018 16.6547 50.6105 16.7393C50.9519 16.8324 51.3044 16.8782 51.6581 16.8754C52.1415 16.8755 52.6222 16.804 53.0848 16.6633C53.5472 16.5224 53.9659 16.2651 54.3009 15.9158C54.3107 16.0464 54.3281 16.1763 54.353 16.3049C54.3787 16.4308 54.412 16.555 54.4525 16.6769H56.6394C56.5176 16.4513 56.4451 16.2023 56.4267 15.9464C56.3859 15.6066 56.367 15.2644 56.3702 14.9221V14.9233ZM54.2138 13.6279C54.211 13.7911 54.1981 13.954 54.1754 14.1156C54.1479 14.3277 54.0782 14.5321 53.9706 14.7168C53.8456 14.9289 53.6679 15.1048 53.4547 15.2273C53.2216 15.3702 52.889 15.4405 52.467 15.4405C52.2993 15.4412 52.1318 15.4256 51.967 15.394C51.8164 15.3689 51.6719 15.315 51.5416 15.2352C51.4193 15.1585 51.3197 15.0504 51.2531 14.9221C51.1781 14.7712 51.1416 14.604 51.1468 14.4355C51.1408 14.2618 51.1773 14.0893 51.2531 13.933C51.3212 13.8042 51.4171 13.6922 51.5337 13.6052C51.6586 13.5149 51.7973 13.4456 51.9444 13.3999C52.1007 13.3492 52.2602 13.3086 52.4218 13.2785C52.5937 13.2479 52.7668 13.2218 52.9377 13.2025C53.1085 13.1832 53.2771 13.156 53.4321 13.1265C53.581 13.0981 53.728 13.0602 53.8722 13.013C53.9969 12.973 54.1123 12.9082 54.2116 12.8225L54.2138 13.6279ZM60.3932 6.44073H58.2369V8.80127H56.929V10.2475H58.2335V14.8926C58.2197 15.2236 58.2877 15.5529 58.4315 15.8511C58.5538 16.0875 58.7406 16.2842 58.97 16.4183C59.2147 16.5567 59.4835 16.6472 59.7619 16.6849C60.0762 16.7314 60.3935 16.7541 60.7111 16.7529C60.9238 16.7529 61.141 16.7529 61.3639 16.7393C61.5675 16.7307 61.7704 16.7099 61.9714 16.6769V14.9981C61.8662 15.0204 61.7596 15.036 61.6524 15.0446C61.5393 15.0548 61.4261 15.0605 61.3028 15.0605C60.9396 15.0605 60.6953 14.9981 60.5742 14.8767C60.4532 14.7554 60.3921 14.5115 60.3921 14.1462V10.2475H61.976V8.80127H60.3921L60.3932 6.44073ZM69.3059 13.2252C69.165 12.978 68.9719 12.7647 68.7402 12.6002C68.4973 12.4276 68.2305 12.2916 67.9483 12.1963C67.6463 12.0948 67.3393 12.0089 67.0285 11.9388C66.7253 11.8674 66.4278 11.8016 66.1336 11.7403C65.8691 11.6863 65.6078 11.6177 65.3507 11.535C65.1488 11.4724 64.9609 11.3711 64.7975 11.2367C64.7288 11.1795 64.674 11.1074 64.6371 11.0258C64.6003 10.9443 64.5824 10.8554 64.5848 10.7659C64.577 10.6258 64.62 10.4876 64.7059 10.3769C64.7859 10.2794 64.8874 10.2017 65.0023 10.15C65.1258 10.0983 65.2561 10.065 65.3892 10.0513C65.5204 10.0373 65.6522 10.0301 65.784 10.0298C66.1314 10.0209 66.4756 10.0964 66.7876 10.2498C67.0693 10.3973 67.2276 10.6786 67.2571 11.0949H69.3059C69.2839 10.6664 69.156 10.2501 68.9337 9.88343C68.7339 9.5719 68.4667 9.30944 68.1519 9.11548C67.8221 8.91632 67.4598 8.77694 67.0817 8.70372C66.6745 8.62232 66.2603 8.58166 65.8451 8.58235C65.4277 8.58199 65.0112 8.61996 64.6007 8.69578C64.2166 8.76505 63.847 8.8993 63.5078 9.09279C63.1856 9.27788 62.916 9.54266 62.7249 9.86187C62.5273 10.1863 62.4285 10.6022 62.4285 11.1096C62.4186 11.416 62.4926 11.7192 62.6423 11.9865C62.784 12.2243 62.9774 12.4271 63.208 12.5797C63.4529 12.7431 63.7195 12.871 63.9999 12.9597C64.2986 13.0573 64.6052 13.1401 64.9186 13.2115C65.5296 13.3302 66.1311 13.4932 66.7185 13.6993C67.1484 13.8611 67.3634 14.1046 67.3634 14.4298C67.3699 14.6001 67.3224 14.7681 67.2276 14.9096C67.1381 15.0347 67.0223 15.1385 66.8882 15.2136C66.7467 15.2921 66.5941 15.3486 66.4357 15.3815C66.2784 15.4158 66.1181 15.4336 65.9571 15.4348C65.75 15.4357 65.5436 15.4102 65.3428 15.3588C65.1554 15.3127 64.9779 15.2327 64.819 15.1229C64.6657 15.015 64.5382 14.8744 64.4457 14.7111C64.3461 14.5268 64.2965 14.3195 64.302 14.1099H62.2463C62.2423 14.543 62.35 14.9697 62.5589 15.3487C62.7679 15.7277 63.0709 16.0461 63.4388 16.2731C63.7964 16.4918 64.1897 16.6454 64.6007 16.7268C65.0398 16.818 65.4872 16.8636 65.9356 16.863C66.3767 16.8634 66.8166 16.8201 67.2491 16.7337C67.6564 16.6553 68.0454 16.5014 68.3963 16.2799C68.7579 16.0555 69.0529 15.7378 69.2503 15.3601C69.4477 14.9824 69.5404 14.5585 69.5186 14.1326C69.5269 13.8168 69.4537 13.5042 69.3059 13.2252ZM73.5869 5.80096L69.4869 16.6735H71.8865L72.7361 14.2529H76.7909L77.6111 16.6735H80.0865L76.0329 5.80096H73.5869ZM73.3606 12.4708L74.7737 8.48139H74.8042L76.1686 12.4765L73.3606 12.4708ZM87.542 9.86187C87.2459 9.47344 86.8671 9.15607 86.4333 8.93285C85.9386 8.68795 85.3918 8.56764 84.8404 8.58235C84.379 8.57684 83.9223 8.67571 83.5042 8.8716C83.0861 9.07551 82.7374 9.3987 82.5019 9.80061H82.4713V8.80127H80.4191V19.4311H82.5765V15.7003H82.6105C82.8633 16.077 83.2122 16.379 83.6208 16.5748C84.0405 16.7749 84.5001 16.8765 84.9648 16.872C85.4882 16.8821 86.0063 16.7654 86.4751 16.5317C86.8966 16.3157 87.2648 16.0085 87.5533 15.6322C87.8469 15.2451 88.0659 14.8066 88.1993 14.3391C88.3394 13.8439 88.409 13.3315 88.4063 12.8168C88.408 12.2743 88.3369 11.7341 88.1948 11.2106C88.0641 10.7253 87.8421 10.2694 87.5409 9.86754L87.542 9.86187ZM86.1606 13.6834C86.1069 13.9651 86.0014 14.2344 85.8495 14.4775C85.7029 14.7056 85.5049 14.896 85.2714 15.0333C84.8828 15.2599 84.4224 15.3286 83.9849 15.2252C83.5474 15.1218 83.1661 14.8542 82.9193 14.4775C82.7663 14.2342 82.6582 13.9652 82.6003 13.6834C82.534 13.3786 82.501 13.0675 82.5019 12.7556C82.5007 12.4384 82.531 12.1218 82.5924 11.8107C82.6462 11.5247 82.7516 11.251 82.9035 11.003C83.05 10.7718 83.2478 10.5776 83.4816 10.4358C83.7509 10.2806 84.0581 10.204 84.3686 10.2146C84.6746 10.2053 84.9771 10.2819 85.242 10.4358C85.4786 10.5812 85.6787 10.7791 85.8269 11.0143C85.9828 11.2643 86.0932 11.5401 86.1527 11.8288C86.219 12.1344 86.252 12.4462 86.2511 12.759C86.2516 13.0713 86.2209 13.3829 86.1595 13.6891L86.1606 13.6834ZM96.7884 11.2095C96.6596 10.7222 96.4379 10.2646 96.1357 9.86187C95.8399 9.47357 95.4615 9.15621 95.0281 8.93285C94.5326 8.68785 93.9851 8.56754 93.4329 8.58235C92.9715 8.57708 92.5149 8.67593 92.0968 8.8716C91.6792 9.0763 91.3307 9.3993 91.0944 9.80061H91.065V8.80127H89.0139V19.4311H91.1634V15.7003H91.194C91.4471 16.0767 91.7959 16.3787 92.2042 16.5748C92.624 16.7748 93.0836 16.8764 93.5483 16.872C94.0717 16.8821 94.5898 16.7654 95.0586 16.5317C95.48 16.3157 95.8483 16.0085 96.1368 15.6322C96.4309 15.2456 96.6496 14.8069 96.7816 14.3391C96.9248 13.8441 96.9964 13.3311 96.9943 12.8157C96.9981 12.2752 96.9285 11.7367 96.7873 11.2151L96.7884 11.2095ZM94.752 13.6834C94.6987 13.9653 94.5932 14.2346 94.4409 14.4775C94.2944 14.7053 94.0968 14.8956 93.8639 15.0333C93.4751 15.2603 93.0143 15.3292 92.5763 15.2258C92.1383 15.1224 91.7566 14.8546 91.5096 14.4775C91.3574 14.2337 91.2494 13.9649 91.1906 13.6834C91.1249 13.3785 91.0919 13.0675 91.0921 12.7556C91.0919 12.4383 91.1226 12.1219 91.1838 11.8107C91.2381 11.5248 91.3435 11.2512 91.4949 11.003C91.6416 10.7723 91.8389 10.5783 92.0719 10.4358C92.3416 10.2806 92.6492 10.204 92.96 10.2146C93.2656 10.2051 93.5679 10.2817 93.8322 10.4358C94.0691 10.5813 94.2696 10.7792 94.4183 11.0143C94.5742 11.2643 94.6846 11.5401 94.7441 11.8288C94.8107 12.1343 94.8441 12.4462 94.8437 12.759C94.8439 13.0712 94.8136 13.3828 94.7532 13.6891L94.752 13.6834Z" fill="white"/>
<path d="M0 22.5054L1.58388 16.7271C0.36124 14.5998 -0.127254 12.1275 0.194135 9.69352C0.515524 7.25952 1.62884 4.99983 3.36147 3.26481C5.09409 1.52979 7.34923 0.416378 9.77721 0.0972054C12.2052 -0.221967 14.6704 0.270935 16.7905 1.49948C18.9107 2.72803 20.5673 4.62359 21.5037 6.89225C22.44 9.16091 22.6037 11.6759 21.9693 14.0473C21.3349 16.4188 19.938 18.5141 17.995 20.0084C16.0521 21.5028 13.6717 22.3127 11.2229 22.3126C9.3649 22.3112 7.53683 21.8433 5.9056 20.9514L0 22.5054ZM6.17146 18.9357L6.51087 19.1364C7.93556 19.983 9.56116 20.4296 11.2172 20.4296C13.2675 20.4296 15.2596 19.7465 16.8805 18.4877C18.5013 17.2288 19.659 15.4656 20.1714 13.4752C20.6839 11.4848 20.5222 9.38004 19.7116 7.49185C18.901 5.60366 17.4876 4.03909 15.6935 3.04408C13.8995 2.04907 11.8265 1.68005 9.80045 1.99503C7.77442 2.31001 5.91023 3.29113 4.50093 4.78415C3.09163 6.27718 2.21714 8.19745 2.01493 10.2431C1.81272 12.2887 2.29426 14.3438 3.38384 16.0851L3.60332 16.4356L2.67223 19.8511L6.17146 18.9357Z" fill="white"/>
<path d="M0.386925 22.1183L1.91084 16.5397C0.729622 14.4866 0.256912 12.1002 0.565993 9.75032C0.875074 7.40048 1.94868 5.21852 3.62037 3.54268C5.29207 1.86685 7.46846 0.790772 9.81215 0.481267C12.1558 0.171762 14.5359 0.646121 16.5834 1.83081C18.6308 3.01549 20.2313 4.84432 21.1367 7.03378C22.0421 9.22324 22.2018 11.651 21.591 13.9407C20.9803 16.2304 19.6332 18.2542 17.7587 19.6982C15.8841 21.1423 13.5868 21.9259 11.2229 21.9277C9.42963 21.928 7.6649 21.4775 6.09001 20.6176L0.386925 22.1183Z" fill="url(#paint0_linear_19_266)"/>
<path d="M0 22.5054L1.58388 16.7271C0.36124 14.5998 -0.127254 12.1275 0.194135 9.69352C0.515524 7.25952 1.62884 4.99983 3.36147 3.26481C5.09409 1.52979 7.34923 0.416378 9.77721 0.0972054C12.2052 -0.221967 14.6704 0.270935 16.7905 1.49948C18.9107 2.72803 20.5673 4.62359 21.5037 6.89225C22.44 9.16091 22.6037 11.6759 21.9693 14.0473C21.3349 16.4188 19.938 18.5141 17.995 20.0084C16.0521 21.5028 13.6717 22.3127 11.2229 22.3126C9.3649 22.3112 7.53683 21.8433 5.9056 20.9514L0 22.5054ZM6.17146 18.9357L6.51087 19.1364C7.93556 19.983 9.56116 20.4296 11.2172 20.4296C13.2675 20.4296 15.2596 19.7465 16.8805 18.4877C18.5013 17.2288 19.659 15.4656 20.1714 13.4752C20.6839 11.4848 20.5222 9.38004 19.7116 7.49185C18.901 5.60366 17.4876 4.03909 15.6935 3.04408C13.8995 2.04907 11.8265 1.68005 9.80045 1.99503C7.77442 2.31001 5.91023 3.29113 4.50093 4.78415C3.09163 6.27718 2.21714 8.19745 2.01493 10.2431C1.81272 12.2887 2.29426 14.3438 3.38384 16.0851L3.60332 16.4356L2.67223 19.8511L6.17146 18.9357Z" fill="url(#paint1_linear_19_266)"/>
<path fill-rule="evenodd" clip-rule="evenodd" d="M8.43866 6.48951C8.23049 6.02443 8.01101 6.01536 7.81302 6.00742C7.65124 6.00061 7.4657 6.00061 7.28016 6.00061C7.13917 6.00439 7.0005 6.0375 6.87294 6.09783C6.74537 6.15817 6.63171 6.24442 6.53914 6.35112C6.28459 6.63016 5.56618 7.30396 5.56618 8.67536C5.56618 10.0468 6.5629 11.3717 6.69753 11.5577C6.83215 11.7437 8.6208 14.6476 11.4492 15.7649C13.7978 16.694 14.2775 16.5091 14.7843 16.4626C15.2912 16.416 16.4293 15.782 16.6612 15.1377C16.8932 14.4934 16.8932 13.9285 16.823 13.8128C16.7529 13.6971 16.5685 13.6267 16.2902 13.4872C16.0118 13.3477 14.6463 12.6727 14.3906 12.5797C14.135 12.4867 13.9505 12.4413 13.765 12.7204C13.5795 12.9994 13.0477 13.6279 12.886 13.8128C12.7242 13.9977 12.5613 14.0215 12.283 13.8819C12.0046 13.7424 11.1097 13.4486 10.0474 12.4992C9.44005 11.9362 8.91892 11.2864 8.50088 10.5708C8.3391 10.2929 8.48391 10.1409 8.62306 10.0037C8.76222 9.86641 8.90137 9.67812 9.04053 9.51591C9.15413 9.37462 9.24743 9.21807 9.31771 9.05083C9.35458 8.97382 9.37182 8.88885 9.36787 8.80352C9.36392 8.71819 9.33891 8.63518 9.29508 8.56193C9.22607 8.419 8.68642 7.03966 8.43866 6.48951Z" fill="white"/>
</g>
<defs>
<linearGradient id="paint0_linear_19_266" x1="11.1731" y1="22.1149" x2="11.1731" y2="0.389051" gradientUnits="userSpaceOnUse">
<stop stop-color="#20B038"/>
<stop offset="1" stop-color="#60D66A"/>
</linearGradient>
<linearGradient id="paint1_linear_19_266" x1="11.1731" y1="22.5054" x2="11.1731" y2="0.00141428" gradientUnits="userSpaceOnUse">
<stop stop-color="#F9F9F9"/>
<stop offset="1" stop-color="white"/>
</linearGradient>
<clipPath id="clip0_19_266">
<rect width="97" height="22.504" fill="white"/>
</clipPath>
</defs>
</svg>
