<svg width="22" height="23" viewBox="0 0 22 23" fill="none" xmlns="http://www.w3.org/2000/svg">
<g clip-path="url(#clip0_19_277)">
<path d="M0 22.098L1.55941 16.4239C0.35566 14.335 -0.125289 11.9073 0.191137 9.51722C0.507562 7.12713 1.60368 4.90821 3.30955 3.20449C5.01541 1.50077 7.23572 0.407447 9.6262 0.0940326C12.0167 -0.219382 14.4438 0.264628 16.5312 1.47101C18.6186 2.6774 20.2497 4.53875 21.1715 6.76649C22.0934 8.99422 22.2545 11.4639 21.63 13.7925C21.0054 16.1211 19.63 18.1787 17.7171 19.6461C15.8041 21.1135 13.4605 21.9088 11.0496 21.9086C9.22025 21.9073 7.42042 21.4478 5.81438 20.572L0 22.098ZM6.07614 18.5926L6.4103 18.7898C7.81299 19.6211 9.41349 20.0597 11.044 20.0596C13.0626 20.0596 15.0239 19.3889 16.6197 18.1527C18.2156 16.9166 19.3553 15.1852 19.8599 13.2307C20.3645 11.2762 20.2052 9.2094 19.4071 7.35528C18.6091 5.50115 17.2175 3.9648 15.4512 2.98774C13.6848 2.01068 11.6438 1.64832 9.64909 1.95762C7.65434 2.26692 5.81894 3.23034 4.43141 4.69643C3.04388 6.16252 2.18289 8.04814 1.98381 10.0569C1.78472 12.0656 2.25882 14.0836 3.33158 15.7935L3.54767 16.1377L2.63095 19.4915L6.07614 18.5926Z" fill="white"/>
<path d="M0.380951 21.7192L1.88133 16.2412C0.718356 14.2252 0.252946 11.8818 0.557253 9.57439C0.861561 7.26694 1.91859 5.12434 3.56446 3.47874C5.21034 1.83314 7.35312 0.776475 9.66061 0.472553C11.9681 0.168632 14.3114 0.634433 16.3273 1.79775C18.3431 2.96106 19.9188 4.7569 20.8102 6.90686C21.7016 9.05681 21.8589 11.4408 21.2576 13.6892C20.6563 15.9376 19.33 17.9248 17.4844 19.3428C15.6388 20.7608 13.377 21.5303 11.0496 21.5321C9.284 21.5323 7.54652 21.09 5.99596 20.2456L0.380951 21.7192Z" fill="url(#paint0_linear_19_277)"/>
<path d="M0 22.098L1.55941 16.4239C0.35566 14.335 -0.125289 11.9073 0.191137 9.51722C0.507562 7.12713 1.60368 4.90821 3.30955 3.20449C5.01541 1.50077 7.23572 0.407447 9.6262 0.0940326C12.0167 -0.219382 14.4438 0.264628 16.5312 1.47101C18.6186 2.6774 20.2497 4.53875 21.1715 6.76649C22.0934 8.99422 22.2545 11.4639 21.63 13.7925C21.0054 16.1211 19.63 18.1787 17.7171 19.6461C15.8041 21.1135 13.4605 21.9088 11.0496 21.9086C9.22025 21.9073 7.42042 21.4478 5.81438 20.572L0 22.098ZM6.07614 18.5926L6.4103 18.7898C7.81299 19.6211 9.41349 20.0597 11.044 20.0596C13.0626 20.0596 15.0239 19.3889 16.6197 18.1527C18.2156 16.9166 19.3553 15.1852 19.8599 13.2307C20.3645 11.2762 20.2052 9.2094 19.4071 7.35528C18.6091 5.50115 17.2175 3.9648 15.4512 2.98774C13.6848 2.01068 11.6438 1.64832 9.64909 1.95762C7.65434 2.26692 5.81894 3.23034 4.43141 4.69643C3.04388 6.16252 2.18289 8.04814 1.98381 10.0569C1.78472 12.0656 2.25882 14.0836 3.33158 15.7935L3.54767 16.1377L2.63095 19.4915L6.07614 18.5926Z" fill="url(#paint1_linear_19_277)"/>
<path fill-rule="evenodd" clip-rule="evenodd" d="M8.30834 6.37241C8.10339 5.91572 7.88729 5.90681 7.69237 5.89902C7.53308 5.89233 7.35041 5.89233 7.16773 5.89233C7.02892 5.89604 6.89239 5.92855 6.7668 5.9878C6.6412 6.04705 6.52929 6.13175 6.43815 6.23652C6.18753 6.51053 5.48022 7.17217 5.48022 8.51883C5.48022 9.8655 6.46154 11.1665 6.59409 11.3492C6.72664 11.5318 8.48767 14.3833 11.2723 15.4805C13.5847 16.3928 14.057 16.2112 14.556 16.1655C15.055 16.1199 16.1756 15.4972 16.4039 14.8645C16.6323 14.2319 16.6323 13.6772 16.5632 13.5635C16.4942 13.4499 16.3126 13.3809 16.0386 13.2439C15.7646 13.1069 14.4201 12.4441 14.1684 12.3528C13.9167 12.2614 13.7351 12.2169 13.5524 12.4909C13.3698 12.7649 12.8462 13.382 12.687 13.5635C12.5277 13.7451 12.3673 13.7685 12.0933 13.6315C11.8192 13.4945 10.9382 13.206 9.89226 12.2737C9.29427 11.7209 8.78118 11.0828 8.3696 10.3801C8.21032 10.1072 8.35289 9.95795 8.4899 9.82317C8.6269 9.6884 8.76391 9.50349 8.90091 9.34421C9.01276 9.20547 9.10462 9.05175 9.17381 8.88752C9.21012 8.81191 9.22709 8.72846 9.2232 8.64468C9.21931 8.56089 9.19468 8.47937 9.15153 8.40745C9.08359 8.2671 8.55228 6.91264 8.30834 6.37241Z" fill="white"/>
</g>
<defs>
<linearGradient id="paint0_linear_19_277" x1="11.0006" y1="21.7159" x2="11.0006" y2="0.382001" gradientUnits="userSpaceOnUse">
<stop stop-color="#20B038"/>
<stop offset="1" stop-color="#60D66A"/>
</linearGradient>
<linearGradient id="paint1_linear_19_277" x1="11.0005" y1="22.098" x2="11.0005" y2="-3.03828e-05" gradientUnits="userSpaceOnUse">
<stop stop-color="#F9F9F9"/>
<stop offset="1" stop-color="white"/>
</linearGradient>
<clipPath id="clip0_19_277">
<rect width="22" height="22.098" fill="white"/>
</clipPath>
</defs>
</svg>
